<svg width="12" height="12" viewBox="0 0 12 12" fill="none" xmlns="http://www.w3.org/2000/svg">
<path d="M5.81686 3.81685C6.28864 3.3451 6.4299 2.63503 6.17416 2.01834C5.91892 1.40219 5.31718 1 4.64997 1H4.64212C3.73461 1.00534 3.00103 1.74157 3 2.65008C3.00004 3.31726 3.40226 3.91897 4.01838 4.17418C4.63506 4.42992 5.34507 4.28863 5.81686 3.81685ZM5.81686 3.81685L5.88757 3.88757M10.4099 4.27501C10.4099 4.27501 10.8533 4.72198 10.9571 4.82213C11.0609 4.92228 11.1197 5.05977 11.121 5.20376C11.1224 5.34767 11.0653 5.4867 10.9632 5.58826C10.8616 5.69033 10.7477 5.74602 10.5788 5.74602C10.4099 5.74602 10.1971 5.58209 10.1971 5.58209L9.65 5.1L10.4099 4.27501ZM10.4099 4.27501L10.9577 3.7272L10.9589 3.72604C11.1632 3.51496 11.1597 3.17972 10.9529 2.9723C10.7455 2.76553 10.41 2.76177 10.199 2.96613L10.1978 2.96726L9.65 3.51507M10.4099 4.27501L9.65 3.51507M9.65 3.51507L9.10219 2.96726L9.10103 2.96613C8.88994 2.76176 8.55471 2.76532 8.34729 2.97207C8.14052 3.17949 8.13676 3.51496 8.34111 3.72604L8.34225 3.7272L8.89006 4.27501L9.65 3.51507ZM8.67499 11.175H1V9.9625C1 8.5916 1.73126 7.32476 2.91867 6.6394C4.10615 5.95345 5.56869 5.95344 6.75616 6.63939C7.94364 7.3248 8.67486 8.5918 8.67486 9.9625L8.67499 11.175ZM9.6354 5.09406L9.11319 5.66508C9.01776 5.77324 8.88302 5.8381 8.73923 5.84582C8.59553 5.85362 8.45409 5.80277 8.34809 5.70529C8.24159 5.60834 8.17843 5.47202 8.17337 5.3283C8.16829 5.18438 8.22093 5.0444 8.32014 4.93968L8.87573 4.33229L9.6354 5.09406Z" stroke="#545F7D" stroke-width="0.4"/>
</svg>
