<svg width="22" height="24" viewBox="0 0 22 24" fill="none" xmlns="http://www.w3.org/2000/svg">
<path d="M1.57171 21.2549C1.32418 21.2561 1.10372 21.107 1.00897 20.8814L1.00853 20.8804C0.914572 20.6531 0.967503 20.3911 1.14184 20.2182C3.17066 18.2014 4.30722 15.4572 4.30024 12.5968V10.4925C4.30024 8.97972 4.81218 7.51196 5.75337 6.32787C6.62768 5.22584 7.825 4.42985 9.17295 4.04761C8.73181 3.42065 8.63973 2.60187 8.9477 1.88426C9.30017 1.06444 10.1057 0.533325 10.9982 0.533325C11.8907 0.533325 12.6963 1.06456 13.0487 1.88438C13.3572 2.60324 13.2642 3.42355 12.821 4.05095C14.1892 4.45625 15.3984 5.28217 16.275 6.41524C17.2154 7.6307 17.7176 9.12752 17.7001 10.6642V12.5968L17.7157 13.205C17.8591 15.8439 18.9737 18.3448 20.8584 20.2183C21.0327 20.3912 21.0856 20.6531 20.9916 20.8804L20.9912 20.8815C20.8964 21.107 20.676 21.2561 20.4284 21.2549H13.9781M1.57171 21.2549H8.02208M1.57171 21.2549L1.57117 21.0549M8.02208 21.2549C8.31709 22.6549 9.55458 23.67 11.0001 23.67C12.4456 23.67 13.6832 22.6549 13.9781 21.2549M8.02208 21.2549H13.8112H13.9781M12.7285 21.2549C12.4747 21.9799 11.7867 22.4798 11.0001 22.4799C10.2134 22.4798 9.52537 21.9799 9.27156 21.2549H12.7285ZM5.51232 10.4924C5.51036 8.98923 6.12477 7.55137 7.2124 6.51489C8.29971 5.47753 9.76425 4.93259 11.2651 5.00474C12.6959 5.09328 14.0376 5.73143 15.0099 6.78408C15.9834 7.83802 16.5119 9.2253 16.4874 10.6596L16.4873 10.663V12.5961C16.4786 15.3042 17.3943 17.9297 19.0743 20.0424H2.92541C4.60544 17.9296 5.5213 15.3045 5.51232 12.5964V10.4924ZM11.0001 1.75485C11.4118 1.75485 11.7837 2.00273 11.9416 2.38386C12.0986 2.76422 12.0121 3.20229 11.7209 3.49444C11.4288 3.78554 10.9908 3.87212 10.6105 3.71515C10.2293 3.55724 9.98133 3.18537 9.98133 2.7736C9.98133 2.21071 10.4372 1.75485 11.0001 1.75485Z" stroke="#213F7D" stroke-width="1.2"/>
</svg>
